<svg xmlns="http://www.w3.org/2000/svg" width="40" height="40" viewBox="0 0 40 40">
    <path fill="#6277FF" fill-rule="nonzero" d="M20 37.5c9.665 0 17.5-7.835 17.5-17.5S29.665 2.5 20 2.5 2.5 10.335 2.5 20 10.335 37.5 20 37.5zm0 2.5C8.954 40 0 31.046 0 20S8.954 0 20 0s20 8.954 20 20-8.954 20-20 20zm-.152-19.029c.647-.876 1.086-1.5 1.319-1.871.232-.371.389-.748.47-1.129.08-.38.12-.933.12-1.657v-2c0-.59-.232-1.095-.696-1.514-.465-.419-1.071-.629-1.819-.629h-3.636V10h3.333c1.758 0 3.106.405 4.046 1.214.94.81 1.409 2.024 1.409 3.643v1.2c0 .953-.07 1.724-.212 2.314a5.893 5.893 0 0 1-.606 1.572c-.263.457-.697 1.095-1.303 1.914l-4.485 5.972H25V30H15v-2.514l4.848-6.515z"/>
</svg>
