<svg xmlns="http://www.w3.org/2000/svg" width="40" height="40" viewBox="0 0 40 40">
    <path fill="#6277FF" fill-rule="nonzero" d="M20 37.5c9.665 0 17.5-7.835 17.5-17.5S29.665 2.5 20 2.5 2.5 10.335 2.5 20 10.335 37.5 20 37.5zm0 2.5C8.954 40 0 31.046 0 20S8.954 0 20 0s20 8.954 20 20-8.954 20-20 20zm3.048-11.071c-.746.714-1.957 1.071-3.635 1.071h-3.58v-2.143h3.831c.709 0 1.23-.167 1.566-.5.336-.333.504-.862.504-1.586V22.83c0-.629-.187-1.129-.56-1.5-.372-.372-.866-.558-1.482-.558H16.7V18.63h2.713c.578 0 1.062-.19 1.454-.572.391-.38.587-.886.587-1.514V14.2c0-.724-.163-1.248-.49-1.571-.325-.324-.843-.486-1.551-.486h-3.58V10h3.244c1.585 0 2.783.357 3.594 1.071.81.715 1.216 1.843 1.216 3.386v1.8c0 1.467-.513 2.572-1.538 3.314 1.212.686 1.818 1.858 1.818 3.515v2.4c0 1.58-.373 2.728-1.119 3.443z"/>
</svg>
