<svg xmlns="http://www.w3.org/2000/svg" xmlns:xlink="http://www.w3.org/1999/xlink" width="315" height="286" viewBox="0 0 315 286">
    <defs>
        <linearGradient id="a" x1="50%" x2="48.96%" y1="70.78%" y2="-152.404%">
            <stop offset="0%" stop-opacity="0"/>
            <stop offset="100%"/>
        </linearGradient>
        <path id="b" d="M10 10h171.981v97.811H10z"/>
        <path id="c" d="M10 10h174c-32 6-152 70-174 94V10z"/>
        <path id="d" d="M70.737 106.152h50.526v49.622H70.737z"/>
        <path id="e" d="M52.62 140.699h87.33c1.376 0 2.694.559 3.647 1.548l5.771 9.99a4.438 4.438 0 0 1-.134 6.298 4.493 4.493 0 0 1-3.1 1.239H46.087c-2.452 0-4.44-1.977-4.44-4.416 0-1.17.468-2.294 1.3-3.122l6.1-10.066a5.067 5.067 0 0 1 3.572-1.471z"/>
        <linearGradient id="g" x1="50%" x2="50%" y1="78.887%" y2="107.805%">
            <stop offset="0%" stop-color="#F5FCF9" stop-opacity="0"/>
            <stop offset="100%" stop-color="#3B8867"/>
        </linearGradient>
        <path id="f" d="M5.053 0h181.894C189.737 0 192 2.25 192 5.025v120.599c0 2.775-2.262 5.025-5.053 5.025H5.053c-2.79 0-5.053-2.25-5.053-5.025V5.025C0 2.25 2.262 0 5.053 0zM15 15v90.45h161.684V15H15z"/>
    </defs>
    <g fill="none" fill-rule="evenodd">
        <path fill="url(#a)" fill-opacity=".7" d="M122.95 203h74.1a40 40 0 0 1 24.875 8.676L228 216.5a7.571 7.571 0 0 1-4.708 13.5H96.708A7.571 7.571 0 0 1 92 216.5l6.075-4.824A40 40 0 0 1 122.95 203z"/>
        <g transform="translate(64 52)">
            <use fill="#FFF" xlink:href="#b"/>
            <use fill="#6277FF" fill-opacity=".14" xlink:href="#b"/>
            <use fill="#FFF" xlink:href="#c"/>
            <use fill="#6277FF" fill-opacity=".22" xlink:href="#c"/>
            <path fill="#FFF" d="M156.512 82.415h10.01v9.962h-10.01v-9.962zm-10.01 0h5.005v4.981h-5.005v-4.98zm15.015-9.962h5.004v4.981h-5.004v-4.981z"/>
            <g>
                <use fill="#FFF" xlink:href="#d"/>
                <path fill="#56997E" fill-opacity=".3" stroke="#7B8480" stroke-linejoin="square" stroke-width="3" d="M72.237 107.652v46.622h47.526v-46.622H72.237z"/>
                <use fill="#FFF" xlink:href="#e"/>
                <path fill="#6DC2A0" fill-opacity=".25" stroke="#7B8480" stroke-linejoin="square" stroke-width="3" d="M50.226 143.119l-6.09 10.051-.13.13a2.903 2.903 0 0 0-.859 2.058c0 1.608 1.314 2.916 2.94 2.916h100.047c.77 0 1.51-.296 2.065-.825a2.938 2.938 0 0 0 .09-4.172l-.128-.132-5.763-9.975a3.568 3.568 0 0 0-2.449-.971H52.62c-.888 0-1.74.33-2.393.92z"/>
                <g>
                    <use fill="#FFF" xlink:href="#f"/>
                    <use fill="#7DDEB7" fill-opacity=".15" xlink:href="#f"/>
                    <path fill="url(#g)" fill-opacity=".5" stroke="#7B8480" stroke-linejoin="square" stroke-width="3" d="M5.053 1.5C3.089 1.5 1.5 3.08 1.5 5.025v120.599c0 1.945 1.589 3.525 3.553 3.525h181.894c1.964 0 3.553-1.58 3.553-3.525V5.025c0-1.945-1.589-3.525-3.553-3.525H5.053zm8.447 12h164.684v93.45H13.5V13.5z"/>
                </g>
            </g>
            <path fill="#FFF" d="M53 35h86v51H53z"/>
            <path fill="#5E598F" fill-rule="nonzero" d="M135.2 31H56.8c-3.757 0-6.766 3.077-6.766 6.875L50 83.125C50 86.923 53.043 90 56.8 90h78.4c3.757 0 6.8-3.077 6.8-6.875v-45.25c0-3.798-3.043-6.875-6.8-6.875zm2.8 54H55V43l41.5 18.5L138 43v42zM96.5 56L55 37h83L96.5 56z"/>
            <circle cx="96" cy="61" r="18" fill="#6277FF"/>
            <path fill="#FFF" d="M99.927 64.488c-.42.185-.932.326-1.454.465-.449.042-.931.088-1.455 0-1.064.088-1.986-.266-2.618-.93-.841-.75-1.21-1.649-1.164-2.79-.045-1.299.46-2.367 1.455-3.256 1.026-.68 2.405-1.072 4.073-1.163.148.09.248.095.29 0 .22.113.32.118.291.233.098-1.222-.162-2.079-.581-2.791-.62-.503-1.354-.807-2.328-.698-1.458-.109-2.614.524-3.49 1.86-.78 1.194-1.194 2.979-1.164 5.35-.03 2.518.45 4.472 1.454 5.813.914 1.308 2.33 1.97 4.073 1.86.644.11 1.238.03 2.036-.232.55-.055.972-.134 1.164-.232.288.098.53.198.582.465.302.132.39.404.29.698.1.613-.262 1.055-.872 1.395-.84.304-1.837.465-3.2.465-2.965 0-5.298-.862-6.982-2.558C88.802 66.692 88 64.184 88 61c0-3.238.765-5.669 2.327-7.442 1.499-1.692 3.634-2.558 6.4-2.558 2.214 0 3.844.52 4.946 1.628.942.968 1.453 2.63 1.454 4.884v5.116c.308.263.53.49.582.698.222.21.291.418.291.697 0 .274-.163.56-.582.698-.232.315-.64.429-1.163.465a3.8 3.8 0 0 1-.873-.233c-.371-.064-.814-.234-1.455-.465zm-.582-2.093v-3.488c-.08.018-.158.011-.29 0-.018.002-.13 0-.291 0-.785 0-1.422.191-2.037.465-.342.49-.582.995-.582 1.628 0 .518.162.92.582 1.163.226.323.681.465 1.164.465.255 0 .44-.023.582 0 .296-.112.561-.18.872-.233z"/>
        </g>
        <path fill="#6277FF" d="M24 16h8v8h-8z"/>
        <path fill="#E28313" d="M296 144h8v8h-8z"/>
        <path fill="#50E3C2" d="M280 192h8v8h-8z"/>
        <path fill="#E28313" d="M32 72h4v4h-4zM76 200h4v4h-4zM230 246h2v2h-2zM204 8h4v4h-4z"/>
        <path fill="#6277FF" d="M176 248h8v8h-8zM124 28h4v4h-4zM288 68h4v4h-4zM40 228h4v4h-4z"/>
        <path fill="#50E3C2" d="M8 100h4v4H8zM296 13h4v4h-4zM56 270h2v2h-2z"/>
        <path fill="#6277FF" d="M240 212h4v4h-4zM238 32h2v2h-2zM22 182h2v2h-2zM292 260h4v4h-4z"/>
    </g>
</svg>
