<svg xmlns="http://www.w3.org/2000/svg" width="40" height="40" viewBox="0 0 40 40">
    <g fill="none" fill-rule="nonzero">
        <circle cx="20" cy="20" r="20" fill="#6277FF"/>
        <path fill="#FFF" d="M26.154 10H13.846A3.83 3.83 0 0 0 10 13.846v12.308A3.83 3.83 0 0 0 13.846 30h12.308A3.83 3.83 0 0 0 30 26.154V13.846A3.83 3.83 0 0 0 26.154 10zm1.111 2.308h.427v3.418h-3.418v-3.418h2.991zm-10.086 5.64c.599-.854 1.71-1.452 2.821-1.452 1.111 0 2.222.598 2.82 1.453.428.598.684 1.282.684 2.051 0 1.966-1.624 3.504-3.504 3.504S16.496 21.966 16.496 20c0-.77.256-1.453.683-2.051zm10.855 8.206c0 1.025-.855 1.88-1.88 1.88H13.846a1.897 1.897 0 0 1-1.88-1.88v-8.205h2.991A5.501 5.501 0 0 0 14.53 20c0 2.991 2.479 5.47 5.47 5.47 2.991 0 5.47-2.479 5.47-5.47 0-.684-.17-1.453-.427-2.051h2.991v8.205z"/>
    </g>
</svg>
