<svg xmlns="http://www.w3.org/2000/svg" xmlns:xlink="http://www.w3.org/1999/xlink" width="184" height="40" viewBox="0 0 184 40">
    <defs>
        <linearGradient id="b" x1="50%" x2="50%" y1="0%" y2="100%">
            <stop offset="0%" stop-color="#FFF" stop-opacity=".5"/>
            <stop offset="100%" stop-color="#FFF" stop-opacity=".233"/>
        </linearGradient>
        <path id="a" d="M0 3.978L9.7 0l-.184 10.548L0 14.6z"/>
        <linearGradient id="d" x1="50%" x2="50%" y1="0%" y2="100%">
            <stop offset="0%" stop-color="#FFF" stop-opacity=".3"/>
            <stop offset="100%" stop-color="#FFF" stop-opacity=".233"/>
        </linearGradient>
        <path id="c" d="M9.496 10.4L25.9 19.438 15.427 23.8 0 14.529z"/>
        <path id="e" d="M.036 4.1L15.4 12.921V23.8L0 14.594z"/>
        <path id="f" d="M9.7 0l16.2 8.6v10.8l-16.4-9z"/>
        <path id="g" d="M15.4 12.9l10.5-4.3v10.825L15.4 23.8z"/>
        <path id="h" d="M9.7 0l16.2 8.6-10.5 4.3L0 4.1z"/>
        <path id="i" d="M0 4.592l14-4.5v15.4l-14 5.3z"/>
        <path id="j" d="M14 15.592l15.4 9.2-13.4 5.2-16-9.1z"/>
        <path id="k" d="M14 .092l15.5 8.6v16.1l-15.5-9.3z"/>
        <path id="l" d="M15.9 13.792l13.6-5.1v16.1l-13.5 5.2z"/>
        <path id="m" d="M0 4.592l16 9.2v16.2l-16-9.1z"/>
        <path id="n" d="M14 .092l15.5 8.6-13.5 5.1-16-9.2z"/>
    </defs>
    <g fill="none" fill-rule="evenodd">
        <g transform="translate(14.1 5.9)">
            <use fill="#D7F5FF" fill-opacity=".5" xlink:href="#a"/>
            <path fill="url(#b)" stroke="#1B5C7D" stroke-linejoin="square" stroke-opacity=".7" stroke-width=".5" d="M.25 4.146v10.076l9.02-3.84L9.442.374.25 4.145z"/>
        </g>
        <g transform="translate(14.1 5.9)">
            <use fill="#C9FCFA" fill-opacity=".5" xlink:href="#c"/>
            <path fill="url(#d)" stroke="#1B5C7D" stroke-linejoin="square" stroke-opacity=".7" stroke-width=".5" d="M9.483 10.678L.545 14.565l14.902 8.956 9.878-4.114-15.842-8.729z"/>
        </g>
        <g transform="translate(14.1 5.9)">
            <use fill="#DFFFFF" fill-opacity=".5" xlink:href="#e"/>
            <path fill="url(#d)" stroke="#1B5C7D" stroke-linejoin="square" stroke-opacity=".7" stroke-width=".5" d="M.284 4.531L.25 14.452l14.9 8.907V13.066L.284 4.531z"/>
        </g>
        <g transform="translate(14.1 5.9)">
            <use fill="#DBFBFF" fill-opacity=".4" xlink:href="#f"/>
            <path fill="url(#d)" stroke="#1B5C7D" stroke-linejoin="square" stroke-opacity=".7" stroke-width=".5" d="M9.942.412l-.19 9.842 15.898 8.724V8.75L9.942.412z"/>
        </g>
        <g transform="translate(14.1 5.9)">
            <use fill="#B9FAFF" fill-opacity=".352" xlink:href="#g"/>
            <path fill="url(#d)" stroke="#1B5C7D" stroke-linejoin="square" stroke-opacity=".7" stroke-width=".5" d="M15.65 13.068v10.357l10-4.167V8.973l-10 4.095z"/>
        </g>
        <g transform="translate(14.1 5.9)">
            <use fill="#D7FCFF" fill-opacity=".6" xlink:href="#h"/>
            <path fill="url(#d)" stroke="#1B5C7D" stroke-linejoin="square" stroke-opacity=".7" stroke-width=".5" d="M9.688.277L.563 4.134l14.855 8.488 9.894-4.051L9.688.277z"/>
        </g>
        <g>
            <g transform="translate(0 4.908)">
                <use fill="#464FDA" fill-opacity=".5" xlink:href="#i"/>
                <path fill="url(#d)" stroke="#231B7D" stroke-linejoin="square" stroke-opacity=".7" stroke-width=".5" d="M.25 4.775V20.43l13.5-5.11V.435L.25 4.775z"/>
            </g>
            <g transform="translate(0 4.908)">
                <use fill="#AE97FA" fill-opacity=".5" xlink:href="#j"/>
                <path fill="url(#d)" stroke="#231B7D" stroke-linejoin="square" stroke-opacity=".7" stroke-width=".5" d="M13.976 15.869L.586 20.938l15.434 8.778 12.812-4.972-14.856-8.875z"/>
            </g>
            <g transform="translate(0 4.908)">
                <use fill="#B7A0EF" fill-opacity=".6" xlink:href="#k"/>
                <path fill="url(#d)" stroke="#231B7D" stroke-linejoin="square" stroke-opacity=".7" stroke-width=".5" d="M14.25.517V15.35l15 9V8.839l-15-8.322z"/>
            </g>
            <g transform="translate(0 4.908)">
                <use fill="#6277FF" fill-opacity=".28" xlink:href="#l"/>
                <path fill="url(#d)" stroke="#231B7D" stroke-linejoin="square" stroke-opacity=".7" stroke-width=".5" d="M16.151 13.965l.097 15.664L29.25 24.62V9.053l-13.099 4.912z"/>
            </g>
            <g transform="translate(0 4.908)">
                <use fill="#8481FD" fill-opacity=".5" xlink:href="#m"/>
                <path fill="url(#d)" stroke="#231B7D" stroke-linejoin="square" stroke-opacity=".7" stroke-width=".5" d="M.25 5.024v15.723l15.5 8.815V13.937L.25 5.024z"/>
            </g>
            <g transform="translate(0 4.908)">
                <use fill="#AF98F1" fill-opacity=".5" xlink:href="#n"/>
                <path fill="url(#d)" stroke="#231B7D" stroke-linejoin="square" stroke-opacity=".7" stroke-width=".5" d="M13.973.363L.615 4.657l15.407 8.86 12.885-4.868L13.973.363z"/>
            </g>
        </g>
        <text fill="#FFF" font-family="TitilliumWeb-Bold, Titillium Web" font-size="27" font-weight="bold">
            <tspan x="52" y="31">Block</tspan> <tspan x="116.044" y="31" font-family="TitilliumWeb-Light, Titillium Web" font-weight="300">buildr</tspan>
        </text>
    </g>
</svg>
