<svg xmlns="http://www.w3.org/2000/svg" width="40" height="40" viewBox="0 0 40 40">
    <g fill="none" fill-rule="nonzero">
        <circle cx="20" cy="20" r="20" fill="#6277FF"/>
        <path fill="#FFF" d="M30 13.923a8.192 8.192 0 0 1-2.357.646 4.115 4.115 0 0 0 1.805-2.27c-.792.47-1.67.812-2.606.996a4.102 4.102 0 0 0-6.991 3.743 11.65 11.65 0 0 1-8.457-4.287 4.083 4.083 0 0 0-.556 2.063 4.1 4.1 0 0 0 1.825 3.415 4.084 4.084 0 0 1-1.858-.513v.052a4.105 4.105 0 0 0 3.29 4.022 4.16 4.16 0 0 1-1.853.072 4.108 4.108 0 0 0 3.832 2.85A8.23 8.23 0 0 1 10 26.41a11.611 11.611 0 0 0 6.29 1.844c7.546 0 11.673-6.252 11.673-11.674 0-.178-.004-.354-.013-.53A8.359 8.359 0 0 0 30 13.923z"/>
    </g>
</svg>
